<svg width="122" height="84" viewBox="0 0 122 84" fill="none" xmlns="http://www.w3.org/2000/svg">
<path d="M4.30469 22.9432V16.0909H33.8104V22.9432H23.2251V51H14.907V22.9432H4.30469ZM59.2465 27.4943C59.0533 26.7784 58.7692 26.1477 58.3942 25.6023C58.0192 25.0455 57.5589 24.5739 57.0135 24.1875C56.468 23.8011 55.843 23.5114 55.1385 23.3182C54.4339 23.1136 53.6612 23.0114 52.8203 23.0114C51.1271 23.0114 49.6612 23.4205 48.4226 24.2386C47.1953 25.0568 46.2464 26.25 45.576 27.8182C44.9055 29.375 44.5703 31.267 44.5703 33.4943C44.5703 35.733 44.8942 37.642 45.5419 39.2216C46.1896 40.8011 47.1271 42.0057 48.3544 42.8352C49.5817 43.6648 51.0703 44.0795 52.8203 44.0795C54.3658 44.0795 55.6726 43.8295 56.7408 43.3295C57.8203 42.8182 58.6385 42.0966 59.1953 41.1648C59.7521 40.233 60.0305 39.1364 60.0305 37.875L61.5987 38.0625H53.1101V31.9091H68.1612V36.5284C68.1612 39.6534 67.4965 42.3295 66.1669 44.5568C64.8487 46.7841 63.0305 48.4943 60.7124 49.6875C58.4055 50.8807 55.7521 51.4773 52.7521 51.4773C49.4226 51.4773 46.4964 50.7557 43.9737 49.3125C41.451 47.8693 39.4851 45.8125 38.076 43.142C36.6669 40.4602 35.9624 37.2784 35.9624 33.5966C35.9624 30.733 36.3885 28.1932 37.2408 25.9773C38.093 23.75 39.2805 21.8636 40.8033 20.3182C42.3374 18.7727 44.1101 17.6023 46.1214 16.8068C48.1442 16.0114 50.3203 15.6136 52.6499 15.6136C54.6726 15.6136 56.5533 15.9034 58.2919 16.483C60.0419 17.0625 61.5874 17.8807 62.9283 18.9375C64.2805 19.9943 65.3771 21.25 66.218 22.7045C67.0589 24.1591 67.5817 25.7557 67.7862 27.4943H59.2465ZM93.7592 51V16.0909H117.589V22.9432H102.197V30.1023H116.072V36.9716H102.197V51H93.7592Z" fill="white"/>
<path d="M76 33H85V84H76V33Z" fill="#FF0000"/>
<path d="M6 63L6 54L121 54V63L6 63Z" fill="#FF0000"/>
<path d="M86.5 21C86.5 24.3137 83.8137 27 80.5 27C77.1863 27 74.5 24.3137 74.5 21C74.5 17.6863 77.1863 15 80.5 15C83.8137 15 86.5 17.6863 86.5 21Z" fill="#FF0000"/>
</svg>
